<svg xmlns="http://www.w3.org/2000/svg" id="Group_6_copy" width="53.781" height="50.031" data-name="Group 6 copy">
    <defs>
        <style>
            .cls-1{fill-rule:evenodd}
        </style>
    </defs>
    <path id="Ellipse_4_copy_10" d="M706.761 160.03a1.422 1.422 0 1 1-1.392 1.422 1.407 1.407 0 0 1 1.392-1.422z" class="cls-1" data-name="Ellipse 4 copy 10" transform="translate(-701.969 -116)"/>
    <path id="Ellipse_4_copy_10-2" d="M754.039 128.594a1.733 1.733 0 1 1-1.7 1.731 1.716 1.716 0 0 1 1.7-1.731z" class="cls-1" data-name="Ellipse 4 copy 10" transform="translate(-701.969 -116)"/>
    <circle id="Ellipse_4_copy_10-3" cx="42.953" cy="3.781" r="3.703" data-name="Ellipse 4 copy 10"/>
    <path id="Shape_1_copy_4" d="M737.213 122.445c-.394-2.481-9.472-3.259-15-2.222a27.648 27.648 0 0 0-9.223 3.474c-8.624 4.75-10.765 11.512-11 16.525s2.227 10.887 8.376 16.857c7.031 6.823 13.944 9.5 19.544 8.847s11.277-4.07 16.015-11.934c4.639-7.706 4.849-14.166 3.612-18.026a10.608 10.608 0 0 0-9.279-7.676c-6.517-.677-13.274 1.608-12.565 5.756.514 3 2.956 2.571 7.145 2.087a2.674 2.674 0 0 1 3.038 2.5c.116.81-.8 2.156-2.135 2.669-1.8.693-4.225.744-4.845 2.089-1.751 3.793 1.29 14.627-4.516 14.935-1.939.1-3.539-1.228-4.609-7.741-.407-2.487-.858-5.819-1.612-9.141-1.131-4.99-2.021-6.213-1.827-8.738.182-2.377 1.04-3.961 5.01-6.26a21.324 21.324 0 0 1 6.173-2.036c4.032-.68 7.9-.696 7.698-1.965z" class="cls-1" data-name="Shape 1 copy 4" transform="translate(-701.969 -116)"/>
</svg>